<svg width="15" height="17" viewBox="0 0 15 17" fill="none" xmlns="http://www.w3.org/2000/svg">
<path d="M7.5 8.5C9.6875 8.5 11.5 6.71875 11.5 4.5C11.5 2.3125 9.6875 0.5 7.5 0.5C5.28125 0.5 3.5 2.3125 3.5 4.5C3.5 6.71875 5.28125 8.5 7.5 8.5ZM10.2812 9.5H9.75C9.0625 9.84375 8.3125 10 7.5 10C6.6875 10 5.90625 9.84375 5.21875 9.5H4.6875C2.375 9.5 0.5 11.4062 0.5 13.7188V15C0.5 15.8438 1.15625 16.5 2 16.5H13C13.8125 16.5 14.5 15.8438 14.5 15V13.7188C14.5 11.4062 12.5938 9.5 10.2812 9.5Z" fill="#008659"/>
</svg>
